<?xml version="1.0" encoding="utf-8"?>
<!-- Generator: Adobe Illustrator 23.0.1, SVG Export Plug-In . SVG Version: 6.00 Build 0)  -->
<svg version="1.1" id="Layer_1" xmlns="http://www.w3.org/2000/svg" xmlns:xlink="http://www.w3.org/1999/xlink" x="0px" y="0px"
	 width="62.3px" height="39px" viewBox="0 0 62.3 39" style="enable-background:new 0 0 62.3 39;" xml:space="preserve">
<style type="text/css">
	.st0{fill:#B3AAB9;}
</style>
<g>
	<g>
		<path class="st0" d="M57.7,16.5l-1.6-6.4c0.4-0.1,0.8-0.5,0.8-0.9v-1c0-2.2-1.8-4.1-4.1-4.1h-7.3V2c0-1.1-0.9-2-2-2H6.2
			c-1.1,0-2,0.9-2,2v17.5c0,0.5,0.4,1,1,1s1-0.4,1-1V2c0,0,0-0.1,0.1-0.1h37.3c0,0,0.1,0,0.1,0.1v17.5c0,0.5,0.4,1,1,1s1-0.4,1-1
			v-1.1h11.5l0,0l0,0c1.4,0,2.6,0.9,3,2.2h-3c-0.5,0-1,0.4-1,1v2.1c0,1.7,1.4,3,3,3H60v4.3h-2.5c-0.8-2.4-3.1-4.1-5.8-4.1
			s-5,1.7-5.8,4.1h-0.5v-7.3c0-0.5-0.4-1-1-1c-0.5,0-1,0.4-1,1v7.3H23.3c-0.8-2.4-3.1-4.1-5.8-4.1s-5,1.7-5.8,4.1H6.2
			c0,0-0.1,0-0.1-0.1v-2.1h4.2c0.5,0,1-0.4,1-1s-0.4-1-1-1H1c-0.5,0-1,0.4-1,1s0.4,1,1,1h3.2v2.1c0,1.1,0.9,2,2,2h5.2c0,0,0,0,0,0.1
			c0,3.4,2.8,6.1,6.2,6.1s6.2-2.7,6.2-6.1c0,0,0,0,0-0.1h21.9c0,0,0,0,0,0.1c0,3.4,2.8,6.1,6.2,6.1s6.2-2.7,6.2-6.1c0,0,0,0,0-0.1
			H61c0.5,0,1-0.4,1-1V21.6C62,19,60.1,16.9,57.7,16.5z M45.4,6h7.3c1.2,0,2.1,1,2.1,2.1v0.1h-9.4V6z M45.4,16.5v-6.3h8.6l1.6,6.3
			H45.4L45.4,16.5z M17.5,37.1c-2.3,0-4.2-1.9-4.2-4.2c0-2.3,1.9-4.2,4.2-4.2s4.2,1.9,4.2,4.2C21.7,35.2,19.9,37.1,17.5,37.1z
			 M51.7,37.1c-2.3,0-4.2-1.9-4.2-4.2c0-2.3,1.9-4.2,4.2-4.2c2.3,0,4.2,1.9,4.2,4.2C55.9,35.2,54,37.1,51.7,37.1z M60.1,24.7H59
			c-0.6,0-1.1-0.5-1.1-1.1v-1.1h2.2V24.7L60.1,24.7z"/>
	</g>
</g>
<g>
	<g>
		<path class="st0" d="M17.5,30.9c-1.1,0-2,0.9-2,2c0,1.1,0.9,2,2,2c1.1,0,2-0.9,2-2C19.5,31.8,18.6,30.9,17.5,30.9z"/>
	</g>
</g>
<g>
	<g>
		<path class="st0" d="M51.7,30.9c-1.1,0-2,0.9-2,2c0,1.1,0.9,2,2,2s2-0.9,2-2C53.7,31.8,52.8,30.9,51.7,30.9z"/>
	</g>
</g>
<g>
	<g>
		<path class="st0" d="M40.3,26.8H25.8c-0.5,0-1,0.4-1,1s0.4,1,1,1h14.5c0.5,0,1-0.4,1-1S40.9,26.8,40.3,26.8z"/>
	</g>
</g>
<g>
	<g>
		<path class="st0" d="M15.5,22.6H3c-0.5,0-1,0.4-1,1s0.4,1,1,1h12.4c0.5,0,1-0.4,1-1S16,22.6,15.5,22.6z"/>
	</g>
</g>
<g>
	<g>
		<path class="st0" d="M33.8,9.5c-0.4-0.4-1-0.4-1.4,0l-8.6,8.6l-4.5-4.5c-0.4-0.4-1-0.4-1.4,0c-0.4,0.4-0.4,1,0,1.4l5.2,5.2
			c0.2,0.2,0.4,0.3,0.7,0.3c0.3,0,0.5-0.1,0.7-0.3l9.3-9.3C34.1,10.5,34.1,9.9,33.8,9.5z"/>
	</g>
</g>
</svg>
