<?xml version="1.0" encoding="utf-8"?>
<!-- Generator: Adobe Illustrator 23.0.1, SVG Export Plug-In . SVG Version: 6.00 Build 0)  -->
<svg version="1.1" id="Capa_1" xmlns="http://www.w3.org/2000/svg" xmlns:xlink="http://www.w3.org/1999/xlink" x="0px" y="0px"
	 width="46px" height="71px" viewBox="0 0 46 71" style="enable-background:new 0 0 46 71;" xml:space="preserve">
<style type="text/css">
	.st0{fill:#B3AAB9;}
</style>
<g>
	<g>
		<path class="st0" d="M22.8,8.3c-0.1-0.9-0.4-1.8-0.8-2.6c-0.5-0.8-1.1-1.5-1.8-2.1c-1.6-1.1-3.9-1.7-7-1.4c-3.7,0.4-7.5-1.8-8-2
			C4.7-0.1,4,0,3.6,0.4C3.5,0.7,3.4,0.9,3.4,1.2c0.6,6.3,2.1,10.6,4,13.3c1.1,1.7,2.6,2.9,4.5,3.6c1.6,0.5,3.3,0.5,4.8-0.2
			c0.5-0.2,0.9-0.4,1.3-0.6c-0.1-0.1-0.2-0.3-0.3-0.4c-0.3-0.5-0.7-0.9-1.1-1.3c-0.2,0.1-0.5,0.3-0.7,0.4c-1.1,0.4-2.2,0.5-3.3,0.1
			c-1.4-0.6-2.6-1.5-3.4-2.8C7.8,11.1,6.5,7.8,5.9,3c1.8,0.8,4.7,1.7,7.5,1.4c2.5-0.3,4.3,0.2,5.5,1c0.5,0.4,0.9,0.8,1.2,1.4
			c0.3,0.5,0.5,1.1,0.6,1.7c0.1,0.6,0,1.2-0.1,1.7c0.6,0.5,1.2,1.1,1.8,1.7C22.8,10.8,22.9,9.5,22.8,8.3z"/>
	</g>
</g>
<g>
	<g>
		<path class="st0" d="M32.9,11.1c-0.5-0.4-1.2-0.2-1.5,0.2c0,0,0,0,0,0c-0.8,1.1-1.9,1.8-3.1,2.4c-1.8,1-3.8,2.1-5,4.7
			c-1.5-5.4-4.5-7.1-7.5-8.7c-1.7-0.9-3.3-1.8-4.4-3.4c-0.4-0.5-1-0.6-1.5-0.2c-0.5,0.3-0.6,1-0.3,1.5c1.4,2,3.2,3,5.1,4.1
			c3.1,1.7,6.4,3.5,7.1,11.3c0.1,0,1,0,1.3,0s1.1,0,1.2,0c0.7-4.9,2.9-6.1,5-7.3c1.4-0.8,2.8-1.6,3.9-3.1
			C33.5,12.1,33.4,11.4,32.9,11.1z"/>
	</g>
</g>
<g>
	<g>
		<path class="st0" d="M23,25.1C10.3,25,0,35.3,0,48C0,54.1,2.4,60,6.7,64.3C11,68.6,16.9,71,23,71c12.7,0,23-10.3,23-23
			S35.7,25.1,23,25.1z M34.3,30.6c3.9,2.5,6.9,6.3,8.4,10.8c-1.4-1.2-2.9-2.2-4.4-3.1C35.3,36.4,33,35,34.3,30.6z M6.5,60.7
			C3.7,57.1,2.1,52.6,2.2,48c0-5.5,2.2-10.8,6.1-14.7c1,2.7,3,4.4,4.8,6c1.6,1.4,3.1,2.7,3.1,4.4c0,1.3-0.8,2.2-1.6,3.3
			c-1.2,1.3-2.1,2.9-2.6,4.6c-0.2,1.1-0.2,2.3-0.1,3.4c0.1,1.8,0.2,3.9-0.4,5.2C10.9,61.5,9.6,62,6.5,60.7z M23,68.8L23,68.8
			c-0.8,0-1.7-0.1-2.5-0.2c-0.6-1.5-0.2-3.2,1.1-4.1c1-0.7,3.6,0.1,6.4,0.9c1.4,0.4,2.9,0.9,4.3,1.1C29.4,68.1,26.2,68.8,23,68.8z
			 M35.4,64.7c-1.7,0.3-4.4-0.5-6.9-1.2c-3.3-1-6.4-1.9-8.3-0.6c-1.8,1.2-2.6,3.3-2.2,5.4c-3.3-0.8-6.3-2.4-8.9-4.6
			c1.8,0.2,3.6-0.8,4.2-2.5c0.8-1.7,0.7-4.1,0.6-6.2c-0.1-0.9-0.1-1.9,0-2.8c0.4-1.4,1.1-2.7,2.1-3.8c1.1-1.4,2.1-2.6,2.1-4.7
			c0-2.7-1.8-4.3-3.9-6c-1.7-1.5-3.7-3.2-4.4-5.9c3.7-2.9,8.2-4.5,12.9-4.5c3.3,0,6.4,0.8,9.3,2.2c-2.1,6.4,0.8,8.2,4.8,10.6
			c2.1,1.3,4.6,2.8,6.5,5.5c0.1,0.8,0.1,1.6,0.1,2.5C43.8,54.6,40.7,60.8,35.4,64.7z"/>
	</g>
</g>
<g>
	<g>
		<path class="st0" d="M36.8,6.5c-0.2,0-0.5,0-0.7,0.1c0,0-3,1.8-5.8,1.5c-2.3-0.3-4.1,0.2-5.4,1.1c-0.6,0.4-1.1,1-1.5,1.6
			c-0.3,0.6-0.6,1.3-0.6,2c-0.1,0.7,0,1.4,0.1,2c0.6-0.7,1.3-1.2,2.1-1.7v-0.1c0-0.4,0.2-0.8,0.4-1.2c0.2-0.4,0.5-0.7,0.8-0.9
			c0.8-0.6,2.1-0.9,3.9-0.7c1.8,0.1,3.6-0.2,5.2-0.9c-0.5,3.3-1.4,5.5-2.4,7c-0.6,0.9-1.4,1.6-2.4,2c-0.6,0.2-1.2,0.2-1.8,0.1
			c-0.6,0.5-1.1,1.1-1.5,1.7l0.2,0.1c1.2,0.5,2.5,0.5,3.8,0.1c1.4-0.5,2.6-1.5,3.5-2.8c1.4-2,2.5-5.3,3-10
			C37.8,7.1,37.4,6.6,36.8,6.5z"/>
	</g>
</g>
</svg>
