<?xml version="1.0" encoding="utf-8"?>
<!-- Generator: Adobe Illustrator 23.0.1, SVG Export Plug-In . SVG Version: 6.00 Build 0)  -->
<svg version="1.1" id="Layer_1" xmlns="http://www.w3.org/2000/svg" xmlns:xlink="http://www.w3.org/1999/xlink" x="0px" y="0px"
	 width="59px" height="59.5px" viewBox="0 0 59 59.5" style="enable-background:new 0 0 59 59.5;" xml:space="preserve">
<style type="text/css">
	.st0{fill:#B3AAB9;}
</style>
<path class="st0" d="M5.1,24.1c-0.5-0.1-0.9,0.2-1,0.7c-0.3,1.7-0.5,3.4-0.5,5.1c0,6.9,2.7,13.4,7.6,18.3s11.4,7.6,18.3,7.6
	s13.4-2.7,18.3-7.6s7.6-11.4,7.6-18.3s-2.7-13.4-7.6-18.3S36.4,3.9,29.5,3.9c-5.4,0-10.5,1.6-14.9,4.7c-4.3,3-7.5,7.2-9.4,12.1
	c-0.2,0.4,0.1,0.9,0.5,1.1s0.9-0.1,1.1-0.5c1.7-4.6,4.7-8.5,8.7-11.3c4.1-2.9,8.9-4.4,13.9-4.4c13.4,0,24.2,10.9,24.2,24.2
	S42.9,54.1,29.5,54.1S5.3,43.2,5.3,29.8c0-1.6,0.2-3.2,0.5-4.8C5.8,24.6,5.5,24.2,5.1,24.1z M15.1,43l-2.3,2.3
	c-0.3,0.3-0.3,0.9,0,1.2c0.2,0.2,0.4,0.3,0.6,0.3s0.4-0.1,0.6-0.3l2.3-2.3c0.3-0.3,0.3-0.9,0-1.2S15.5,42.7,15.1,43z M25.7,32.1
	c0.1,0.3,0.4,0.5,0.8,0.5h6.8v5.8c0,0.5,0.4,0.9,0.9,0.9s0.9-0.4,0.9-0.9v-5.8h1.2c0.5,0,0.9-0.4,0.9-0.9s-0.4-0.9-0.9-0.9H35V21
	c0,0,0,0,0,0c0,0,0,0,0,0c0,0,0,0,0,0c0,0,0,0,0,0c0,0,0,0,0,0c0,0,0,0,0,0c0,0,0,0,0,0c0,0,0,0,0,0c0,0,0,0,0,0c0,0,0,0,0,0
	c0,0,0,0,0,0c0,0,0,0,0,0c0,0,0,0,0,0s0,0,0,0c0,0,0,0,0,0c0,0,0,0,0,0c0,0,0,0,0,0s0,0,0,0c0,0,0,0,0,0c0,0,0,0,0,0c0,0,0,0,0,0
	c0,0,0,0,0,0c0,0,0,0,0,0c0,0,0,0,0,0c0,0,0,0,0,0c0,0,0,0,0,0s0,0,0,0c0,0,0,0,0,0c0,0,0,0,0,0c0,0,0,0,0,0c0,0,0,0,0,0
	c0,0,0,0,0,0c0,0,0,0,0,0h0c0,0,0,0,0,0c0,0,0,0,0,0s0,0,0,0s0,0,0,0c0,0,0,0,0,0s0,0,0,0c0,0,0,0,0,0s0,0,0,0c0,0,0,0,0,0
	c0,0,0,0,0,0c0,0,0,0,0,0c0,0,0,0,0,0c0,0,0,0,0,0c0,0,0,0,0,0c0,0,0,0,0,0c0,0,0,0,0,0c0,0,0,0,0,0c0,0,0,0,0,0c0,0,0,0,0,0
	c0,0,0,0,0,0l-7.7,10.7C25.6,31.5,25.6,31.8,25.7,32.1z M33.3,23.7v7.1h-5.1L33.3,23.7z M15.7,16.9c0.2,0,0.4-0.1,0.6-0.3
	c0.3-0.3,0.3-0.9,0-1.2l-2.3-2.3c-0.3-0.3-0.9-0.3-1.2,0s-0.3,0.9,0,1.2l2.3,2.3C15.3,16.8,15.5,16.9,15.7,16.9z M12.1,26.6
	c0.5,0,0.9-0.4,0.9-0.9c0-2.4,2-4.4,4.4-4.4s4.4,2,4.4,4.4c0,1.2-0.5,2.3-1.3,3.1l-8.9,8.9c-0.2,0.2-0.3,0.6-0.2,0.9
	c0.1,0.3,0.4,0.5,0.8,0.5H23c0.5,0,0.9-0.4,0.9-0.9s-0.4-0.9-0.9-0.9h-8.7l7.4-7.4c1.2-1.2,1.8-2.7,1.8-4.3c0-3.4-2.8-6.1-6.1-6.1
	s-6.1,2.8-6.1,6.1C11.3,26.3,11.7,26.6,12.1,26.6z M24.5,11.3v-1c0-0.5-0.4-0.9-0.9-0.9s-0.9,0.4-0.9,0.9v1c0,0.5,0.4,0.9,0.9,0.9
	C24.2,12.2,24.5,11.8,24.5,11.3z M28.6,49.3v3.2c0,0.5,0.4,0.9,0.9,0.9s0.9-0.4,0.9-0.9v-3.2c0-0.5-0.4-0.9-0.9-0.9
	S28.6,48.8,28.6,49.3z M42.7,43c-0.3,0.3-0.3,0.9,0,1.2l2.3,2.3c0.2,0.2,0.4,0.3,0.6,0.3s0.4-0.1,0.6-0.3c0.3-0.3,0.3-0.9,0-1.2
	L43.9,43C43.5,42.7,43,42.7,42.7,43z M43.3,16.9c0.2,0,0.4-0.1,0.6-0.3l2.3-2.3c0.3-0.3,0.3-0.9,0-1.2s-0.9-0.3-1.2,0l-2.3,2.3
	c-0.3,0.3-0.3,0.9,0,1.2C42.8,16.8,43.1,16.9,43.3,16.9z M50.4,9c-5.6-5.6-13-8.6-20.9-8.6S14.2,3.4,8.6,9S0,22,0,29.8
	s3.1,15.3,8.6,20.9s13,8.6,20.9,8.6c6.6,0,12.8-2.1,18-6.1c0.4-0.3,0.4-0.8,0.2-1.2s-0.8-0.4-1.2-0.2c-4.9,3.8-10.8,5.8-16.9,5.8
	c-7.4,0-14.4-2.9-19.6-8.1S1.7,37.3,1.7,29.8s2.9-14.4,8.1-19.6s12.2-8.1,19.6-8.1S43.9,5,49.1,10.2s8.1,12.2,8.1,19.6
	c0,7.2-2.8,14.1-7.8,19.3c-0.3,0.3-0.3,0.9,0,1.2s0.9,0.3,1.2,0c5.3-5.5,8.3-12.8,8.3-20.5C59,22,55.9,14.5,50.4,9z M29.5,12.9
	c0.8,0,1.6-0.4,2.2-1c0.3-0.4,0.3-0.9-0.1-1.2s-0.9-0.3-1.2,0.1c-0.2,0.3-0.5,0.4-0.9,0.4c-0.3,0-0.7-0.1-0.9-0.4
	c-0.3-0.4-0.9-0.4-1.2-0.1C27,11,27,11.6,27.3,11.9C27.9,12.6,28.7,12.9,29.5,12.9z M41.8,30.9c-0.5,0-0.9,0.4-0.9,0.9v6.7
	c0,0.5,0.4,0.9,0.9,0.9s0.9-0.4,0.9-0.9v-2.5h3.1v2.5c0,0.5,0.4,0.9,0.9,0.9s0.9-0.4,0.9-0.9v-6.7c0-0.5-0.4-0.9-0.9-0.9
	s-0.9,0.4-0.9,0.9v2.5h-3.1v-2.5C42.6,31.2,42.2,30.9,41.8,30.9z M35.3,12.2c0.5,0,0.9-0.4,0.9-0.9v-1c0-0.5-0.4-0.9-0.9-0.9
	s-0.9,0.4-0.9,0.9v1C34.5,11.8,34.8,12.2,35.3,12.2z"/>
</svg>
