<?xml version="1.0" encoding="utf-8"?>
<!-- Generator: Adobe Illustrator 23.0.1, SVG Export Plug-In . SVG Version: 6.00 Build 0)  -->
<svg version="1.1" id="Capa_1" xmlns="http://www.w3.org/2000/svg" xmlns:xlink="http://www.w3.org/1999/xlink" x="0px" y="0px"
	 width="50px" height="49.5px" viewBox="0 0 50 49.5" style="enable-background:new 0 0 50 49.5;" xml:space="preserve">
<style type="text/css">
	.st0{fill:#B3AAB9;}
</style>
<g>
	<g>
		<path class="st0" d="M44.2,15.8L44.2,15.8c-0.2-0.7-0.6-1.2-1.2-1.5c-6.8-3.1-6.9-3.6-8.3-3.6c-0.5,0-1,0.1-1.5,0.3l-6.8,3.2
			c-0.6,0.3-1,0.8-1.2,1.5c-0.2,0.8-0.6,2.5-0.6,4.6c0,5.7,2.6,10.9,8,14.9c1.2,0.9,2.8,0.9,4.1,0c5.4-3.9,8-9.2,8-14.9
			C44.8,18.3,44.5,16.6,44.2,15.8z M35.8,33.8c-0.6,0.4-1.4,0.4-2,0c-4.9-3.6-7.2-8.3-7.2-13.4c0-1.9,0.3-3.4,0.5-4.1
			c0-0.2,0.1-0.3,0.2-0.3c7.1-3.3,6.8-3.4,7.5-3.4c0.6,0,0.4,0.1,7.5,3.4c0.1,0,0.1,0.1,0.2,0.3c0.2,0.7,0.5,2.2,0.5,4.1
			C43,25.5,40.8,30.2,35.8,33.8z"/>
	</g>
</g>
<g>
	<g>
		<path class="st0" d="M45.8,0.5H14.2c-2.4,0-4.3,2-4.3,4.4v28.4H4.7c-2.6,0-4.7,2.1-4.7,4.8v5.5c0,3.3,2.6,5.9,5.8,5.9
			c13.9,0,28,0,37.7,0c3.6,0,6.5-2.9,6.5-6.6V4.8C50,2.4,48.1,0.5,45.8,0.5z M6.9,47.5c-2.7,0.7-5.1-1.4-5.1-3.9v-5.5
			c0-1.6,1.3-2.9,2.9-2.9h5.2l0,0l0,0l0,0l0,0c0,0,0,0,0,0l0,0l0,0l0,0l0,0c0,0.2,0,1.5,0,8.4C9.9,45.5,8.6,47.1,6.9,47.5z
			 M48.2,42.9L48.2,42.9c0,2.6-2.1,4.7-4.7,4.7H10.1c2-2.1,1.6-4.4,1.6-5.6v-7.8c0,0,0-0.1,0-0.1V4.9c0-1.4,1.1-2.5,2.5-2.5h31.6
			c1.3,0,2.4,1.1,2.4,2.4L48.2,42.9L48.2,42.9z"/>
	</g>
</g>
<g>
	<g>
		<path class="st0" d="M40.2,18.8c-0.4-0.3-1-0.3-1.3,0.1c-6.1,7.6-5.7,7.2-5.8,7.2c-0.1,0,0,0-2.4-2.3c-0.4-0.4-0.9-0.3-1.3,0
			c-0.3,0.4-0.3,0.9,0,1.3l2.3,2.2c0.4,0.4,0.8,0.5,1.3,0.5c0.6,0,1.1-0.3,1.5-0.7l5.7-7.2C40.6,19.7,40.6,19.2,40.2,18.8z"/>
	</g>
</g>
<g>
	<g>
		<path class="st0" d="M38.6,7.4H15.5c-0.5,0-0.9,0.4-0.9,0.9c0,0.5,0.4,0.9,0.9,0.9h23.1c0.5,0,0.9-0.4,0.9-0.9
			C39.5,7.8,39.1,7.4,38.6,7.4z"/>
	</g>
</g>
<g>
	<g>
		<path class="st0" d="M43.9,7.4h-1.8c-0.5,0-0.9,0.4-0.9,0.9c0,0.5,0.4,0.9,0.9,0.9h1.8c0.5,0,0.9-0.4,0.9-0.9
			C44.8,7.8,44.4,7.4,43.9,7.4z"/>
	</g>
</g>
<g>
	<g>
		<path class="st0" d="M43.9,40.5H22.4c-0.5,0-0.9,0.4-0.9,0.9c0,0.5,0.4,0.9,0.9,0.9h21.5c0.5,0,0.9-0.4,0.9-0.9
			C44.8,40.9,44.4,40.5,43.9,40.5z"/>
	</g>
</g>
<g>
	<g>
		<path class="st0" d="M18.8,40.5h-3.3c-0.5,0-0.9,0.4-0.9,0.9c0,0.5,0.4,0.9,0.9,0.9h3.3c0.5,0,0.9-0.4,0.9-0.9
			C19.7,40.9,19.3,40.5,18.8,40.5z"/>
	</g>
</g>
<g>
	<g>
		<path class="st0" d="M22.2,14.1h-6.7c-0.5,0-0.9,0.4-0.9,0.9c0,0.5,0.4,0.9,0.9,0.9h6.7c0.5,0,0.9-0.4,0.9-0.9
			S22.7,14.1,22.2,14.1z"/>
	</g>
</g>
<g>
	<g>
		<path class="st0" d="M22.2,20.7h-6.7c-0.5,0-0.9,0.4-0.9,0.9s0.4,0.9,0.9,0.9h6.7c0.5,0,0.9-0.4,0.9-0.9S22.7,20.7,22.2,20.7z"/>
	</g>
</g>
<g>
	<g>
		<path class="st0" d="M23.7,27.3h-8.3c-0.5,0-0.9,0.4-0.9,0.9s0.4,0.9,0.9,0.9h8.3c0.5,0,0.9-0.4,0.9-0.9S24.2,27.3,23.7,27.3z"/>
	</g>
</g>
<g>
	<g>
		<path class="st0" d="M26.7,33.9H15.5c-0.5,0-0.9,0.4-0.9,0.9c0,0.5,0.4,0.9,0.9,0.9h11.2c0.5,0,0.9-0.4,0.9-0.9
			C27.6,34.3,27.2,33.9,26.7,33.9z"/>
	</g>
</g>
</svg>
