<?xml version="1.0" encoding="utf-8"?>
<!-- Generator: Adobe Illustrator 23.0.1, SVG Export Plug-In . SVG Version: 6.00 Build 0)  -->
<svg version="1.1" id="Capa_1" xmlns="http://www.w3.org/2000/svg" xmlns:xlink="http://www.w3.org/1999/xlink" x="0px" y="0px"
	 width="41px" height="48px" viewBox="0 0 41 48" style="enable-background:new 0 0 41 48;" xml:space="preserve">
<style type="text/css">
	.st0{fill:#B3AAB9;}
</style>
<g>
	<g>
		<path class="st0" d="M24.6,10.5c-1.1-1.3-2.2-2.6-3-3.6c0-0.1-0.1-0.1-0.2-0.2c-0.5-0.4-1.2-0.3-1.6,0.2c-0.8,1-1.9,2.2-3,3.6
			c-0.3,0.3-0.5,0.6-0.8,0.9c-1.2-1.7-2.6-3.3-3.8-4.6c-0.7-0.8-1.3-1.5-1.7-2c0-0.1-0.1-0.1-0.2-0.2C9.9,4.2,9.2,4.3,8.8,4.8
			C8.4,5.3,7.8,6,7.1,6.8C4.1,10.2,0,15.1,0,19.2c0,2.7,1.1,5.1,2.8,6.9c0.7,0.7,1.5,1.3,2.4,1.8c-0.1,0.5-0.3,0.9-0.4,1.4
			c-0.2,0.8-0.3,1.6-0.3,2.4c0,4.5,1.8,8.6,4.7,11.5c2.9,2.9,6.9,4.8,11.4,4.8s8.5-1.8,11.4-4.8c2.9-2.9,4.7-7,4.7-11.5
			C36.8,24.8,29.7,16.5,24.6,10.5z M4.4,24.6c-1.3-1.3-2.2-3.3-2.2-5.3c0-3.4,3.8-7.9,6.6-11.1c0.3-0.4,0.6-0.7,0.9-1
			c0.3,0.4,0.6,0.7,0.9,1c1.4,1.7,3.1,3.6,4.4,5.6c0.6,1,1.2,1.9,1.5,2.9c0,0,0,0,0,0c0.1,0.2,0.2,0.4,0.2,0.6c0,0,0,0.1,0,0.1
			c0,0.2,0.1,0.4,0.1,0.5c0,0.1,0,0.2,0,0.3c0,0.1,0,0.3,0.1,0.4c0,0.2,0,0.4,0,0.6c0,1.3-0.3,2.5-0.9,3.6c-0.4,0.6-0.8,1.2-1.3,1.7
			c-0.5,0.5-1.1,0.9-1.7,1.3c-1.1,0.6-2.3,0.9-3.5,0.9c-0.3,0-0.5,0-0.8,0c0,0,0,0-0.1,0c-0.2,0-0.4,0-0.7-0.1c0,0-0.1,0-0.1,0
			c-0.2,0-0.4-0.1-0.6-0.1c0,0-0.1,0-0.1,0C6.2,26.1,5.2,25.5,4.4,24.6z M30.4,41.6c-2.5,2.5-6,4.1-9.8,4.1c-3.8,0-7.3-1.6-9.8-4.1
			s-4-6-4-9.9c0-0.6,0.1-1.3,0.2-2c0.1-0.4,0.2-0.7,0.3-1.1c0.1,0,0.2,0,0.2,0c0.1,0,0.2,0,0.3,0.1h0c0.1,0,0.2,0,0.3,0
			c0.2,0,0.4,0,0.5,0.1c0.3,0,0.6,0,0.9,0c2.7,0,5.1-1.1,6.8-2.9c0.2-0.2,0.4-0.4,0.6-0.7c1.4-1.7,2.2-3.8,2.2-6.2
			c0-0.3,0-0.5,0-0.8c0-0.1,0-0.2,0-0.4c0-0.1,0-0.3-0.1-0.4c0-0.2-0.1-0.3-0.1-0.5c0-0.1,0-0.2-0.1-0.4c0-0.2-0.1-0.4-0.2-0.6
			c0-0.1,0-0.2-0.1-0.3c0,0,0,0,0-0.1c-0.4-0.8-0.8-1.7-1.3-2.5c0.4-0.5,0.8-0.9,1.1-1.3c0.8-0.9,1.5-1.8,2.2-2.6
			c0.7,0.8,1.4,1.7,2.2,2.6c4.9,5.7,11.7,13.6,11.7,19.8C34.4,35.6,32.9,39.1,30.4,41.6z"/>
	</g>
</g>
<g>
	<g>
		<path class="st0" d="M41,9.6L41,9.6c-0.1-2.6-3.3-6.6-5.3-8.8l-0.2-0.4c0,0-0.1-0.1-0.2-0.2c-0.5-0.4-1.2-0.3-1.6,0.2
			c-0.2,0.3-0.6,0.8-1,1.2c-1.9,2.2-4.5,5.2-4.5,7.9c0,1.8,0.7,3.4,1.9,4.6c1.1,1.2,2.7,1.9,4.5,1.9c1.8,0,3.4-0.7,4.5-1.9
			C40.3,13,41,11.4,41,9.7l0,0C41,9.7,41,9.7,41,9.6C41,9.6,41,9.6,41,9.6z M37.6,12.5c-0.8,0.8-1.8,1.2-2.9,1.2
			c-1.1,0-2.2-0.4-2.9-1.2c-0.8-0.8-1.2-1.8-1.2-2.9c0-1.9,2.3-4.5,3.9-6.4l0.2-0.3l0.2,0.3c1.6,1.9,3.9,4.6,3.9,6.4
			C38.7,10.7,38.3,11.8,37.6,12.5z"/>
	</g>
</g>
</svg>
